<?xml version="1.0" encoding="UTF-8"?>
<svg id="Layer_2" data-name="Layer 2" xmlns="http://www.w3.org/2000/svg" viewBox="0 0 810.96 260.45">
  <defs>
    <style>
      .cls-1 {
        fill: #00406c;
      }

      .cls-2 {
        fill: #ff7b0f;
      }
    </style>
  </defs>
  <g id="Layer_1-2" data-name="Layer 1">
    <g>
      <g>
        <path class="cls-2" d="M89.14,206.11c8.87,0,15.96-7.61,15.09-16.65-.75-7.88-7.83-13.68-15.75-13.68h-52.39c-3.18,0-5.77-2.58-5.77-5.77V62.37c0-7.92-5.79-14.99-13.68-15.75-9.04-.86-16.65,6.23-16.65,15.09v114.06c0,16.75,13.58,30.33,30.33,30.33h58.81Z"/>
        <path class="cls-2" d="M195.85,69.27v131.61c0,32.91-26.67,59.58-59.58,59.58l-63.78-.05c-8.38,0-15.16-6.8-15.16-15.18h0c0-8.38,6.79-15.17,15.16-15.18l63.62-.05c16.25,0,29.41-13.16,29.41-29.41V70.57c0-21.38-17.47-40.09-38.86-40.14-10.76-.03-20.53,4.34-27.6,11.41-7.04,7.04-11.41,16.76-11.41,27.53v45.05c0,2.23,1.82,4.01,4.01,4.01h35.68c4.17,0,8,1.69,10.74,4.43,2.58,2.61,4.24,6.12,4.4,10.04.41,8.73-7.1,15.87-15.83,15.87h-63.97c-2.93,0-5.35-2.39-5.35-5.35v-72.61C57.32,32.66,87.49.52,125.63,0c19.53-.25,37.21,7.55,49.92,20.29,12.55,12.52,20.29,29.82,20.29,48.97Z"/>
      </g>
      <g>
        <g>
          <path class="cls-1" d="M260.36,92.28v-53.39c0-2.33,1.31-3.64,3.64-3.64h5.41c2.33,0,3.55,1.31,3.55,3.64v46.57h22.96c2.33,0,3.73,1.21,3.73,3.55v3.27c0,2.33-1.4,3.64-3.73,3.64h-31.92c-2.33,0-3.64-1.31-3.64-3.64Z"/>
          <path class="cls-1" d="M361.24,95.92h-7.28c-2.33,0-2.8-1.31-3.83-3.64l-3.27-7.84h-27.63l-3.36,7.84c-.93,2.33-1.4,3.64-3.83,3.64h-6.81c-2.33,0-3.55-1.31-2.43-3.64l25.67-54.41c.93-1.96,2.24-3.17,4.39-3.17h.84c2.15,0,3.55,1.21,4.48,3.17l25.57,54.41c1.03,2.33-.09,3.64-2.52,3.64ZM343.04,75.38l-9.8-23.52-10.08,23.52h19.88Z"/>
          <path class="cls-1" d="M369.36,69.78v-30.89c0-2.33,1.31-3.64,3.64-3.64h5.41c2.33,0,3.55,1.31,3.55,3.64v31.36c0,9.24,5.97,15.49,14.93,15.49s14.84-6.25,14.84-15.49v-31.36c0-2.33,1.31-3.64,3.64-3.64h5.13c2.33,0,3.64,1.31,3.64,3.64v30.89c0,16.33-10.92,27.25-27.25,27.25s-27.53-10.92-27.53-27.25Z"/>
          <path class="cls-1" d="M490.87,38.89v53.57c0,2.71-1.96,3.92-4.2,3.92h-.75c-2.15,0-3.73-1.21-5.51-3.36l-30.05-35.84v35c0,2.33-1.21,3.73-3.55,3.73h-5.32c-2.33,0-3.64-1.4-3.64-3.73v-53.48c0-2.8,1.96-3.92,4.2-3.92h.75c2.15,0,3.73,1.21,5.51,3.36l30.05,35.75v-35c0-2.33,1.21-3.64,3.55-3.64h5.32c2.33,0,3.64,1.31,3.64,3.64Z"/>
          <path class="cls-1" d="M501.69,65.58c0-18.01,14.28-31.45,32.57-31.45,9.33,0,17.55,3.64,23.24,9.61,1.68,1.68,1.59,3.64-.19,5.04l-3.36,2.89c-1.77,1.4-3.36,1.21-5.13-.28-3.83-3.64-8.77-5.88-14.47-5.88-11.11,0-19.79,8.4-19.79,20.07s8.68,20.07,19.79,20.07c5.69,0,10.73-2.24,14.47-5.88,1.77-1.59,3.36-1.77,5.13-.28l3.36,2.8c1.77,1.49,1.87,3.45.19,5.04-5.69,6.07-13.91,9.71-23.33,9.71-18.2,0-32.48-13.44-32.48-31.45Z"/>
          <path class="cls-1" d="M568.41,92.18v-53.29c0-2.33,1.31-3.64,3.64-3.64h5.41c2.33,0,3.55,1.31,3.55,3.64v21.37h27.91v-21.37c0-2.33,1.21-3.64,3.55-3.64h5.41c2.33,0,3.64,1.31,3.64,3.64v53.29c0,2.33-1.31,3.73-3.64,3.73h-5.41c-2.33,0-3.55-1.4-3.55-3.73v-21.47h-27.91v21.47c0,2.33-1.21,3.73-3.55,3.73h-5.41c-2.33,0-3.64-1.4-3.64-3.73Z"/>
          <path class="cls-1" d="M636.07,92.18v-53.29c0-2.33,1.4-3.64,3.73-3.64h21.56c14.84,0,22.96,7.37,22.96,19.51s-8.03,19.41-22.96,19.41h-12.69v18.01c0,2.33-1.21,3.73-3.55,3.73h-5.41c-2.33,0-3.64-1.4-3.64-3.73ZM661.92,64.28c5.79,0,9.52-3.27,9.52-9.24s-3.73-9.33-9.52-9.33h-13.25v18.57h13.25Z"/>
          <path class="cls-1" d="M741.81,95.92h-7.28c-2.33,0-2.8-1.31-3.83-3.64l-3.27-7.84h-27.63l-3.36,7.84c-.93,2.33-1.4,3.64-3.83,3.64h-6.81c-2.33,0-3.55-1.31-2.43-3.64l25.67-54.41c.93-1.96,2.24-3.17,4.39-3.17h.84c2.15,0,3.55,1.21,4.48,3.17l25.57,54.41c1.03,2.33-.09,3.64-2.52,3.64ZM723.61,75.38l-9.8-23.52-10.08,23.52h19.88Z"/>
          <path class="cls-1" d="M753.38,92.18v-53.29c0-2.33,1.4-3.64,3.73-3.64h22.03c19.41,0,31.83,12.13,31.83,30.24s-12.41,30.43-31.83,30.43h-22.03c-2.33,0-3.73-1.4-3.73-3.73ZM778.76,85.46c11.57,0,19.32-7.65,19.32-19.88s-7.75-19.88-19.32-19.88h-12.79v39.76h12.79Z"/>
        </g>
        <g>
          <path class="cls-1" d="M260.36,160.8c0-17.92,13.91-31.45,32.11-31.45,7.84,0,14.56,2.52,20.07,6.81,1.87,1.49,1.87,3.64.09,5.23l-2.89,2.71c-1.77,1.59-3.55,1.4-5.51.09-3.36-2.24-7.28-3.64-11.48-3.64-11.11,0-19.69,8.77-19.69,20.25,0,12.04,8.77,20.53,19.97,20.53,6.35,0,9.99-2.24,12.6-3.64v-11.2h-11.29c-2.33,0-3.64-1.21-3.64-3.55v-2.43c0-2.24,1.31-3.55,3.64-3.55h19.04c2.33,0,3.64,1.4,3.64,3.64v20.35c0,2.43-1.31,3.83-3.55,5.23-3.45,2.05-10.17,6.07-21.19,6.07-18.01,0-31.92-13.63-31.92-31.45Z"/>
          <path class="cls-1" d="M328.86,187.5v-53.39c0-2.33,1.31-3.64,3.64-3.64h5.41c2.33,0,3.55,1.31,3.55,3.64v46.57h22.96c2.33,0,3.73,1.21,3.73,3.55v3.27c0,2.33-1.4,3.64-3.73,3.64h-31.92c-2.33,0-3.64-1.31-3.64-3.64Z"/>
          <path class="cls-1" d="M369.73,160.8c0-18.01,14.28-31.45,32.95-31.45s32.95,13.44,32.95,31.45-14.19,31.45-32.95,31.45-32.95-13.44-32.95-31.45ZM422.84,160.8c0-11.76-8.87-20.07-20.16-20.07s-20.07,8.31-20.07,20.07,8.77,20.07,20.07,20.07,20.16-8.4,20.16-20.07Z"/>
          <path class="cls-1" d="M494.51,174.15c0,10.36-8.87,16.99-22.21,16.99h-22.12c-2.33,0-3.73-1.4-3.73-3.73v-53.29c0-2.33,1.4-3.64,3.73-3.64h20.35c12.79,0,20.35,5.97,20.35,15.96,0,5.79-3.17,10.08-7.75,12.51,6.16,2.24,11.39,7.28,11.39,15.21ZM482,172.94c0-5.23-4.11-8.68-10.45-8.68h-12.51v17.27h11.67c7.19,0,11.29-3.08,11.29-8.59ZM459.14,139.99v15.87h10.17c5.88,0,9.43-2.89,9.43-7.93s-3.45-7.93-9.43-7.93h-10.17Z"/>
          <path class="cls-1" d="M557.04,191.14h-7.28c-2.33,0-2.8-1.31-3.83-3.64l-3.27-7.84h-27.63l-3.36,7.84c-.93,2.33-1.4,3.64-3.83,3.64h-6.81c-2.33,0-3.55-1.31-2.43-3.64l25.67-54.41c.93-1.96,2.24-3.17,4.39-3.17h.84c2.15,0,3.55,1.21,4.48,3.17l25.57,54.41c1.03,2.33-.09,3.64-2.52,3.64ZM538.84,170.6l-9.8-23.52-10.08,23.52h19.88Z"/>
          <path class="cls-1" d="M568.6,187.5v-53.39c0-2.33,1.31-3.64,3.64-3.64h5.41c2.33,0,3.55,1.31,3.55,3.64v46.57h22.96c2.33,0,3.73,1.21,3.73,3.55v3.27c0,2.33-1.4,3.64-3.73,3.64h-31.92c-2.33,0-3.64-1.31-3.64-3.64Z"/>
        </g>
      </g>
      <g>
        <path class="cls-2" d="M260.36,247.09v-21.4h15.47v2.53h-12.64v6.55h11.84v2.51h-11.84v7.28h13.14v2.53h-15.97Z"/>
        <path class="cls-2" d="M289.96,247.09v-1.96c-.98,1.54-2.43,2.31-4.34,2.31-1.24,0-2.37-.34-3.41-1.02s-1.84-1.63-2.41-2.85-.85-2.63-.85-4.21.26-2.95.77-4.21,1.29-2.23,2.32-2.9,2.18-1.01,3.46-1.01c.93,0,1.77.2,2.5.59s1.32.91,1.78,1.54v-7.68h2.61v21.4h-2.44ZM281.66,239.36c0,1.99.42,3.47,1.26,4.45s1.82,1.47,2.96,1.47,2.12-.47,2.93-1.41,1.2-2.37,1.2-4.3c0-2.12-.41-3.68-1.23-4.67s-1.82-1.49-3.02-1.49-2.14.48-2.93,1.43-1.18,2.46-1.18,4.51Z"/>
        <path class="cls-2" d="M306.69,247.09v-2.28c-1.21,1.75-2.85,2.63-4.92,2.63-.91,0-1.77-.18-2.56-.53s-1.38-.79-1.77-1.32-.65-1.18-.81-1.95c-.11-.52-.16-1.33-.16-2.45v-9.6h2.63v8.6c0,1.37.05,2.3.16,2.77.17.69.52,1.23,1.05,1.63s1.2.59,1.99.59,1.53-.2,2.22-.61,1.18-.95,1.47-1.65.43-1.71.43-3.03v-8.31h2.63v15.5h-2.35Z"/>
        <path class="cls-2" d="M323.27,241.42l2.58.34c-.28,1.78-1,3.17-2.17,4.18s-2.59,1.51-4.28,1.51c-2.12,0-3.83-.69-5.12-2.08s-1.93-3.37-1.93-5.96c0-1.67.28-3.14.83-4.39s1.4-2.2,2.53-2.82,2.37-.94,3.7-.94c1.68,0,3.06.43,4.13,1.28s1.76,2.06,2.06,3.63l-2.55.39c-.24-1.04-.67-1.82-1.29-2.35s-1.36-.79-2.24-.79c-1.32,0-2.4.47-3.23,1.42s-1.24,2.45-1.24,4.5.4,3.6,1.2,4.54,1.84,1.42,3.12,1.42c1.03,0,1.89-.32,2.58-.95s1.13-1.61,1.31-2.92Z"/>
        <path class="cls-2" d="M338.22,245.18c-.97.83-1.91,1.41-2.81,1.75s-1.87.51-2.9.51c-1.7,0-3.01-.42-3.93-1.25s-1.37-1.9-1.37-3.19c0-.76.17-1.45.52-2.08s.8-1.13,1.36-1.51,1.19-.67,1.89-.86c.52-.14,1.29-.27,2.34-.39,2.12-.25,3.68-.55,4.69-.91,0-.36.01-.59.01-.69,0-1.07-.25-1.82-.74-2.26-.67-.59-1.67-.89-2.99-.89-1.24,0-2.15.22-2.74.65s-1.02,1.2-1.31,2.3l-2.57-.35c.23-1.1.62-1.99,1.15-2.66s1.31-1.2,2.32-1.56,2.18-.55,3.52-.55,2.4.16,3.23.47,1.44.7,1.82,1.18.66,1.07.82,1.79c.09.45.13,1.26.13,2.42v3.5c0,2.44.06,3.99.17,4.63s.33,1.27.66,1.86h-2.74c-.27-.54-.45-1.18-.53-1.91ZM338,239.31c-.95.39-2.38.72-4.29.99-1.08.16-1.84.33-2.29.53s-.79.48-1.04.85-.36.79-.36,1.25c0,.7.27,1.28.8,1.75s1.31.7,2.33.7,1.91-.22,2.7-.66,1.37-1.05,1.74-1.82c.28-.59.42-1.47.42-2.63v-.96Z"/>
        <path class="cls-2" d="M350.47,244.74l.38,2.32c-.74.16-1.4.23-1.99.23-.95,0-1.69-.15-2.22-.45s-.9-.7-1.11-1.19-.32-1.53-.32-3.1v-8.92h-1.93v-2.04h1.93v-3.84l2.61-1.58v5.42h2.64v2.04h-2.64v9.06c0,.75.05,1.23.14,1.45s.24.38.45.51.51.19.9.19c.29,0,.68-.03,1.15-.1Z"/>
        <path class="cls-2" d="M353.05,228.72v-3.02h2.63v3.02h-2.63ZM353.05,247.09v-15.5h2.63v15.5h-2.63Z"/>
        <path class="cls-2" d="M358.7,239.34c0-2.87.8-5,2.39-6.38,1.33-1.15,2.96-1.72,4.88-1.72,2.13,0,3.87.7,5.23,2.09s2.03,3.33,2.03,5.79c0,1.99-.3,3.56-.9,4.71s-1.47,2.03-2.61,2.66-2.39.95-3.74.95c-2.17,0-3.92-.7-5.26-2.09s-2.01-3.4-2.01-6.01ZM361.4,239.34c0,1.99.43,3.47,1.3,4.46s1.96,1.48,3.27,1.48,2.39-.5,3.26-1.49,1.3-2.51,1.3-4.54c0-1.92-.44-3.37-1.31-4.36s-1.95-1.48-3.25-1.48-2.4.49-3.27,1.47-1.3,2.47-1.3,4.45Z"/>
        <path class="cls-2" d="M376.3,247.09v-15.5h2.36v2.2c1.14-1.7,2.78-2.55,4.93-2.55.93,0,1.79.17,2.58.5s1.37.78,1.76,1.32.66,1.19.82,1.94c.1.49.15,1.34.15,2.55v9.53h-2.63v-9.43c0-1.07-.1-1.87-.31-2.4s-.57-.95-1.09-1.27-1.13-.47-1.83-.47c-1.12,0-2.08.36-2.9,1.07s-1.22,2.06-1.22,4.04v8.47h-2.63Z"/>
        <path class="cls-2" d="M402.01,253.39v-28.06h2.29v28.06h-2.29Z"/>
        <path class="cls-2" d="M418.12,247.09v-21.4h2.83v21.4h-2.83Z"/>
        <path class="cls-2" d="M425.61,247.09v-15.5h2.35v2.17c.49-.76,1.13-1.37,1.94-1.83s1.73-.69,2.76-.69c1.15,0,2.09.24,2.82.72s1.25,1.14,1.55,2c1.23-1.81,2.82-2.72,4.79-2.72,1.54,0,2.72.43,3.55,1.28s1.24,2.16,1.24,3.93v10.64h-2.61v-9.77c0-1.05-.09-1.81-.26-2.27s-.48-.83-.93-1.12-.97-.42-1.58-.42c-1.09,0-1.99.36-2.72,1.09s-1.08,1.89-1.08,3.48v9.01h-2.63v-10.07c0-1.17-.21-2.04-.64-2.63s-1.13-.88-2.1-.88c-.74,0-1.42.19-2.05.58s-1.08.96-1.36,1.71-.42,1.83-.42,3.24v8.04h-2.63Z"/>
        <path class="cls-2" d="M450.52,247.09v-15.5h2.35v2.17c.49-.76,1.13-1.37,1.94-1.83s1.73-.69,2.76-.69c1.15,0,2.09.24,2.82.72s1.25,1.14,1.55,2c1.23-1.81,2.82-2.72,4.79-2.72,1.54,0,2.72.43,3.55,1.28s1.24,2.16,1.24,3.93v10.64h-2.61v-9.77c0-1.05-.09-1.81-.26-2.27s-.48-.83-.93-1.12-.97-.42-1.58-.42c-1.09,0-1.99.36-2.72,1.09s-1.08,1.89-1.08,3.48v9.01h-2.63v-10.07c0-1.17-.21-2.04-.64-2.63s-1.13-.88-2.1-.88c-.74,0-1.42.19-2.05.58s-1.08.96-1.36,1.71-.42,1.83-.42,3.24v8.04h-2.63Z"/>
        <path class="cls-2" d="M475.43,228.72v-3.02h2.63v3.02h-2.63ZM475.43,247.09v-15.5h2.63v15.5h-2.63Z"/>
        <path class="cls-2" d="M481.58,248.38l2.55.38c.11.79.4,1.36.89,1.72.65.49,1.54.73,2.67.73,1.22,0,2.16-.24,2.82-.73s1.11-1.17,1.34-2.04c.14-.54.2-1.66.19-3.37-1.15,1.35-2.58,2.03-4.29,2.03-2.13,0-3.78-.77-4.95-2.31-1.17-1.54-1.75-3.38-1.75-5.53,0-1.48.27-2.84.8-4.09s1.31-2.22,2.33-2.9,2.21-1.02,3.58-1.02c1.83,0,3.34.74,4.53,2.22v-1.87h2.42v13.4c0,2.41-.25,4.12-.74,5.13s-1.27,1.8-2.34,2.39-2.38.88-3.93.88c-1.85,0-3.34-.42-4.48-1.25s-1.69-2.08-1.65-3.76ZM483.75,239.07c0,2.03.4,3.52,1.21,4.45s1.82,1.4,3.04,1.4,2.22-.46,3.04-1.39,1.23-2.39,1.23-4.37-.42-3.33-1.26-4.29-1.86-1.45-3.04-1.45-2.16.47-2.98,1.42-1.23,2.36-1.23,4.23Z"/>
        <path class="cls-2" d="M498.66,247.09v-15.5h2.36v2.35c.6-1.1,1.16-1.82,1.67-2.17s1.07-.53,1.69-.53c.89,0,1.79.28,2.7.85l-.91,2.44c-.64-.38-1.28-.57-1.93-.57-.57,0-1.09.17-1.55.52s-.78.82-.98,1.44c-.29.93-.44,1.96-.44,3.07v8.12h-2.63Z"/>
        <path class="cls-2" d="M518.76,245.18c-.97.83-1.91,1.41-2.81,1.75s-1.87.51-2.9.51c-1.7,0-3.01-.42-3.93-1.25s-1.37-1.9-1.37-3.19c0-.76.17-1.45.52-2.08s.8-1.13,1.36-1.51,1.19-.67,1.89-.86c.52-.14,1.29-.27,2.34-.39,2.12-.25,3.68-.55,4.69-.91,0-.36.01-.59.01-.69,0-1.07-.25-1.82-.74-2.26-.67-.59-1.67-.89-2.99-.89-1.24,0-2.15.22-2.74.65s-1.02,1.2-1.31,2.3l-2.57-.35c.23-1.1.62-1.99,1.15-2.66s1.31-1.2,2.32-1.56,2.18-.55,3.52-.55,2.4.16,3.23.47,1.44.7,1.82,1.18.66,1.07.82,1.79c.09.45.13,1.26.13,2.42v3.5c0,2.44.06,3.99.17,4.63s.33,1.27.66,1.86h-2.74c-.27-.54-.45-1.18-.53-1.91ZM518.54,239.31c-.95.39-2.38.72-4.29.99-1.08.16-1.84.33-2.29.53s-.79.48-1.04.85-.36.79-.36,1.25c0,.7.27,1.28.8,1.75s1.31.7,2.33.7,1.91-.22,2.7-.66,1.37-1.05,1.74-1.82c.28-.59.42-1.47.42-2.63v-.96Z"/>
        <path class="cls-2" d="M531,244.74l.38,2.32c-.74.16-1.4.23-1.99.23-.95,0-1.69-.15-2.22-.45s-.9-.7-1.11-1.19-.32-1.53-.32-3.1v-8.92h-1.93v-2.04h1.93v-3.84l2.61-1.58v5.42h2.64v2.04h-2.64v9.06c0,.75.05,1.23.14,1.45s.24.38.45.51.51.19.9.19c.29,0,.68-.03,1.15-.1Z"/>
        <path class="cls-2" d="M533.59,228.72v-3.02h2.63v3.02h-2.63ZM533.59,247.09v-15.5h2.63v15.5h-2.63Z"/>
        <path class="cls-2" d="M539.24,239.34c0-2.87.8-5,2.39-6.38,1.33-1.15,2.96-1.72,4.88-1.72,2.13,0,3.87.7,5.23,2.09s2.03,3.33,2.03,5.79c0,1.99-.3,3.56-.9,4.71s-1.47,2.03-2.61,2.66-2.39.95-3.74.95c-2.17,0-3.92-.7-5.26-2.09s-2.01-3.4-2.01-6.01ZM541.94,239.34c0,1.99.43,3.47,1.3,4.46s1.96,1.48,3.27,1.48,2.39-.5,3.26-1.49,1.3-2.51,1.3-4.54c0-1.92-.44-3.37-1.31-4.36s-1.95-1.48-3.25-1.48-2.4.49-3.27,1.47-1.3,2.47-1.3,4.45Z"/>
        <path class="cls-2" d="M556.84,247.09v-15.5h2.36v2.2c1.14-1.7,2.78-2.55,4.93-2.55.93,0,1.79.17,2.58.5s1.37.78,1.76,1.32.66,1.19.82,1.94c.1.49.15,1.34.15,2.55v9.53h-2.63v-9.43c0-1.07-.1-1.87-.31-2.4s-.57-.95-1.09-1.27-1.13-.47-1.83-.47c-1.12,0-2.08.36-2.9,1.07s-1.22,2.06-1.22,4.04v8.47h-2.63Z"/>
        <path class="cls-2" d="M582.55,253.39v-28.06h2.29v28.06h-2.29Z"/>
        <path class="cls-2" d="M603.09,247.09v-18.87h-7.05v-2.53h16.96v2.53h-7.08v18.87h-2.83Z"/>
        <path class="cls-2" d="M622.86,242.1l2.72.34c-.43,1.59-1.22,2.82-2.38,3.69s-2.64,1.31-4.44,1.31c-2.27,0-4.07-.7-5.39-2.09s-1.99-3.35-1.99-5.88.67-4.63,2.01-6.07,3.08-2.16,5.23-2.16,3.77.71,5.08,2.12,1.97,3.4,1.97,5.96c0,.16,0,.39-.01.7h-11.56c.1,1.7.58,3.01,1.45,3.91s1.95,1.36,3.24,1.36c.96,0,1.79-.25,2.47-.76s1.22-1.31,1.62-2.42ZM614.24,237.85h8.66c-.12-1.3-.45-2.28-.99-2.93-.84-1.01-1.92-1.52-3.26-1.52-1.21,0-2.22.4-3.04,1.21s-1.28,1.89-1.36,3.24Z"/>
        <path class="cls-2" d="M627.83,242.47l2.6-.41c.15,1.04.55,1.84,1.22,2.39s1.6.83,2.8.83,2.1-.25,2.69-.74.88-1.07.88-1.73c0-.59-.26-1.06-.77-1.4-.36-.23-1.26-.53-2.69-.89-1.93-.49-3.26-.91-4.01-1.26s-1.31-.85-1.69-1.47-.58-1.32-.58-2.08c0-.69.16-1.33.47-1.92s.75-1.08,1.29-1.47c.41-.3.97-.56,1.67-.77s1.46-.31,2.27-.31c1.22,0,2.28.18,3.2.53s1.6.82,2.04,1.42.74,1.4.91,2.4l-2.57.35c-.12-.8-.45-1.42-1.01-1.87s-1.35-.67-2.37-.67c-1.21,0-2.07.2-2.58.6s-.77.87-.77,1.4c0,.34.11.65.32.92.21.28.55.52,1.01.7.26.1,1.04.32,2.32.67,1.86.5,3.16.9,3.89,1.22s1.31.78,1.73,1.38.63,1.35.63,2.25-.26,1.7-.77,2.47-1.25,1.37-2.21,1.8-2.05.63-3.27.63c-2.01,0-3.55-.42-4.61-1.26s-1.73-2.08-2.02-3.72Z"/>
        <path class="cls-2" d="M649.56,244.74l.38,2.32c-.74.16-1.4.23-1.99.23-.95,0-1.69-.15-2.22-.45s-.9-.7-1.11-1.19-.32-1.53-.32-3.1v-8.92h-1.93v-2.04h1.93v-3.84l2.61-1.58v5.42h2.64v2.04h-2.64v9.06c0,.75.05,1.23.14,1.45s.24.38.45.51.51.19.9.19c.29,0,.68-.03,1.15-.1Z"/>
        <path class="cls-2" d="M660.77,247.09v-21.4h8.07c1.42,0,2.51.07,3.26.2,1.05.18,1.93.51,2.64,1s1.28,1.18,1.72,2.07.65,1.86.65,2.92c0,1.82-.58,3.36-1.74,4.62s-3.25,1.89-6.28,1.89h-5.49v8.7h-2.83ZM663.61,235.87h5.53c1.83,0,3.13-.34,3.9-1.02s1.15-1.64,1.15-2.88c0-.9-.23-1.66-.68-2.3s-1.05-1.06-1.79-1.26c-.48-.13-1.36-.19-2.64-.19h-5.47v7.65Z"/>
        <path class="cls-2" d="M680.35,247.09v-15.5h2.36v2.35c.6-1.1,1.16-1.82,1.67-2.17s1.07-.53,1.69-.53c.89,0,1.79.28,2.7.85l-.91,2.44c-.64-.38-1.28-.57-1.93-.57-.57,0-1.09.17-1.55.52s-.78.82-.98,1.44c-.29.93-.44,1.96-.44,3.07v8.12h-2.63Z"/>
        <path class="cls-2" d="M700.94,242.1l2.72.34c-.43,1.59-1.22,2.82-2.38,3.69s-2.64,1.31-4.44,1.31c-2.27,0-4.07-.7-5.39-2.09s-1.99-3.35-1.99-5.88.67-4.63,2.01-6.07c1.34-1.44,3.08-2.16,5.23-2.16s3.77.71,5.08,2.12,1.97,3.4,1.97,5.96c0,.16,0,.39-.01.7h-11.56c.1,1.7.58,3.01,1.45,3.91s1.95,1.36,3.24,1.36c.96,0,1.79-.25,2.47-.76s1.22-1.31,1.62-2.42ZM692.32,237.85h8.66c-.12-1.3-.45-2.28-.99-2.93-.84-1.01-1.92-1.52-3.26-1.52-1.21,0-2.22.4-3.04,1.21s-1.28,1.89-1.36,3.24Z"/>
        <path class="cls-2" d="M706.96,253.04v-21.44h2.39v2.01c.56-.79,1.2-1.38,1.91-1.77s1.57-.59,2.58-.59c1.32,0,2.49.34,3.5,1.02s1.78,1.64,2.29,2.88.77,2.6.77,4.08c0,1.59-.28,3.01-.85,4.28s-1.4,2.24-2.48,2.92-2.23,1.01-3.42,1.01c-.88,0-1.66-.18-2.36-.55s-1.27-.84-1.72-1.4v7.55h-2.63ZM709.34,239.43c0,1.99.4,3.47,1.21,4.42s1.79,1.43,2.93,1.43,2.17-.49,3-1.48,1.25-2.52,1.25-4.59-.41-3.45-1.22-4.44-1.78-1.47-2.91-1.47-2.11.52-2.97,1.57-1.29,2.57-1.29,4.56Z"/>
        <path class="cls-2" d="M733.7,245.18c-.97.83-1.91,1.41-2.81,1.75s-1.87.51-2.9.51c-1.7,0-3.01-.42-3.93-1.25s-1.37-1.9-1.37-3.19c0-.76.17-1.45.52-2.08s.8-1.13,1.36-1.51,1.19-.67,1.89-.86c.52-.14,1.29-.27,2.34-.39,2.12-.25,3.68-.55,4.69-.91,0-.36.01-.59.01-.69,0-1.07-.25-1.82-.74-2.26-.67-.59-1.67-.89-2.99-.89-1.24,0-2.15.22-2.74.65s-1.02,1.2-1.31,2.3l-2.57-.35c.23-1.1.62-1.99,1.15-2.66s1.31-1.2,2.32-1.56,2.18-.55,3.52-.55,2.4.16,3.23.47,1.44.7,1.82,1.18.66,1.07.82,1.79c.09.45.13,1.26.13,2.42v3.5c0,2.44.06,3.99.17,4.63s.33,1.27.66,1.86h-2.74c-.27-.54-.45-1.18-.53-1.91ZM733.48,239.31c-.95.39-2.38.72-4.29.99-1.08.16-1.84.33-2.29.53s-.79.48-1.04.85-.36.79-.36,1.25c0,.7.27,1.28.8,1.75s1.31.7,2.33.7,1.91-.22,2.7-.66,1.37-1.05,1.74-1.82c.28-.59.42-1.47.42-2.63v-.96Z"/>
        <path class="cls-2" d="M740.18,247.09v-15.5h2.36v2.35c.6-1.1,1.16-1.82,1.67-2.17s1.07-.53,1.69-.53c.89,0,1.79.28,2.7.85l-.91,2.44c-.64-.38-1.28-.57-1.93-.57-.57,0-1.09.17-1.55.52s-.78.82-.98,1.44c-.29.93-.44,1.96-.44,3.07v8.12h-2.63Z"/>
        <path class="cls-2" d="M760.28,245.18c-.97.83-1.91,1.41-2.81,1.75s-1.87.51-2.9.51c-1.7,0-3.01-.42-3.93-1.25s-1.37-1.9-1.37-3.19c0-.76.17-1.45.52-2.08s.8-1.13,1.36-1.51,1.19-.67,1.89-.86c.52-.14,1.29-.27,2.34-.39,2.12-.25,3.68-.55,4.69-.91,0-.36.01-.59.01-.69,0-1.07-.25-1.82-.74-2.26-.67-.59-1.67-.89-2.99-.89-1.24,0-2.15.22-2.74.65s-1.02,1.2-1.31,2.3l-2.57-.35c.23-1.1.62-1.99,1.15-2.66s1.31-1.2,2.32-1.56,2.18-.55,3.52-.55,2.4.16,3.23.47,1.44.7,1.82,1.18.66,1.07.82,1.79c.09.45.13,1.26.13,2.42v3.5c0,2.44.06,3.99.17,4.63s.33,1.27.66,1.86h-2.74c-.27-.54-.45-1.18-.53-1.91ZM760.06,239.31c-.95.39-2.38.72-4.29.99-1.08.16-1.84.33-2.29.53s-.79.48-1.04.85-.36.79-.36,1.25c0,.7.27,1.28.8,1.75s1.31.7,2.33.7,1.91-.22,2.7-.66,1.37-1.05,1.74-1.82c.28-.59.42-1.47.42-2.63v-.96Z"/>
        <path class="cls-2" d="M772.53,244.74l.38,2.32c-.74.16-1.4.23-1.99.23-.95,0-1.69-.15-2.22-.45s-.9-.7-1.11-1.19-.32-1.53-.32-3.1v-8.92h-1.93v-2.04h1.93v-3.84l2.61-1.58v5.42h2.64v2.04h-2.64v9.06c0,.75.05,1.23.14,1.45s.24.38.45.51.51.19.9.19c.29,0,.68-.03,1.15-.1Z"/>
        <path class="cls-2" d="M775.11,228.72v-3.02h2.63v3.02h-2.63ZM775.11,247.09v-15.5h2.63v15.5h-2.63Z"/>
        <path class="cls-2" d="M780.76,239.34c0-2.87.8-5,2.39-6.38,1.33-1.15,2.96-1.72,4.88-1.72,2.13,0,3.87.7,5.23,2.09s2.03,3.33,2.03,5.79c0,1.99-.3,3.56-.9,4.71s-1.47,2.03-2.61,2.66-2.39.95-3.74.95c-2.17,0-3.92-.7-5.26-2.09s-2.01-3.4-2.01-6.01ZM783.46,239.34c0,1.99.43,3.47,1.3,4.46s1.96,1.48,3.27,1.48,2.39-.5,3.26-1.49,1.3-2.51,1.3-4.54c0-1.92-.44-3.37-1.31-4.36s-1.95-1.48-3.25-1.48-2.4.49-3.27,1.47-1.3,2.47-1.3,4.45Z"/>
        <path class="cls-2" d="M798.37,247.09v-15.5h2.36v2.2c1.14-1.7,2.78-2.55,4.93-2.55.93,0,1.79.17,2.58.5s1.37.78,1.76,1.32.66,1.19.82,1.94c.1.49.15,1.34.15,2.55v9.53h-2.63v-9.43c0-1.07-.1-1.87-.31-2.4s-.57-.95-1.09-1.27-1.13-.47-1.83-.47c-1.12,0-2.08.36-2.9,1.07s-1.22,2.06-1.22,4.04v8.47h-2.63Z"/>
      </g>
    </g>
  </g>
</svg>